<?xml version="1.0" encoding="UTF-8" standalone="no"?>
<svg
   xmlns:dc="http://purl.org/dc/elements/1.1/"
   xmlns:cc="http://creativecommons.org/ns#"
   xmlns:rdf="http://www.w3.org/1999/02/22-rdf-syntax-ns#"
   xmlns:svg="http://www.w3.org/2000/svg"
   xmlns="http://www.w3.org/2000/svg"
   xmlns:sodipodi="http://sodipodi.sourceforge.net/DTD/sodipodi-0.dtd"
   xmlns:inkscape="http://www.inkscape.org/namespaces/inkscape"
   version="1.1"
   id="Layer_1"
   x="0px"
   y="0px"
   viewBox="0 0 256 256"
   style="enable-background:new 0 0 256 256;"
   xml:space="preserve"
   sodipodi:docname="reshot-icon-construction-site-75FNWSUP6K.svg"
   inkscape:version="1.0.1 (3bc2e813f5, 2020-09-07)"><metadata
   id="metadata133"><rdf:RDF><cc:Work
       rdf:about=""><dc:format>image/svg+xml</dc:format><dc:type
         rdf:resource="http://purl.org/dc/dcmitype/StillImage" /></cc:Work></rdf:RDF></metadata><defs
   id="defs131" /><sodipodi:namedview
   pagecolor="#ffffff"
   bordercolor="#666666"
   borderopacity="1"
   objecttolerance="10"
   gridtolerance="10"
   guidetolerance="10"
   inkscape:pageopacity="0"
   inkscape:pageshadow="2"
   inkscape:window-width="2160"
   inkscape:window-height="1346"
   id="namedview129"
   showgrid="false"
   inkscape:zoom="2.8710938"
   inkscape:cx="128"
   inkscape:cy="126.43265"
   inkscape:window-x="-11"
   inkscape:window-y="-11"
   inkscape:window-maximized="1"
   inkscape:current-layer="Layer_1" />
<style
   type="text/css"
   id="style2">
	.st0{fill:#FFB69F;}
	.st1{fill:#72C2E9;}
	.st2{fill:#C2E5FF;}
	.st3{fill:#FC5D3D;}
	.st4{fill:#AFAFAF;}
	.st5{fill:#FFCBC3;}
	.st6{fill:#F0C020;}
	.st7{fill:#F8E5B0;}
	.st8{fill:#EFEFEF;}
	.st9{fill:#EEC21E;}
	.st10{fill:#FFFFFF;}
	.st11{fill:#F1BF21;}
	.st12{fill:#E8A61E;}
	.st13{fill:#7D7B79;}
	.st14{fill:#B34F33;}
	.st15{fill:#F8E5B2;}
	.st16{fill:#C5E5FE;}
	.st17{fill:#4C4944;}
	.st18{fill:#4BA5C8;}
	.st19{fill:#AFAEAF;}
	.st20{fill:#CF941C;}
	.st21{fill:#7C7B7A;}
	.st22{fill:#FAE0E1;}
	.st23{fill:#13BF6D;}
	.st24{fill:#76FFBB;}
	.st25{fill:#F2E1D7;}
	.st26{fill:#878787;}
	.st27{fill:#F9E5AF;}
	.st28{fill:#E8A61F;}
	.st29{fill:none;stroke:#000000;stroke-width:5;stroke-linecap:round;stroke-linejoin:round;stroke-miterlimit:10;}
	.st30{fill:#EFEFF0;}
	.st31{fill:#E8A61B;}
	.st32{fill:#EFEFEE;}
	.st33{fill:#4C4945;}
	.st34{fill:#EA8F7D;}
	.st35{fill:#D6C0B3;}
	.st36{fill:#EEC120;}
</style>
<g
   id="g4">
</g>
<g
   id="g126">
	<g
   id="g8">
		<rect
   x="37.38"
   y="164.853"
   class="st4"
   width="24.83"
   height="19.64"
   id="rect6" />
	</g>
	<g
   id="g12">
		<rect
   x="37.38"
   y="215.003"
   class="st4"
   width="24.83"
   height="36.406"
   id="rect10" />
	</g>
	<g
   id="g16">
		<rect
   x="193.79"
   y="164.853"
   class="st4"
   width="24.83"
   height="19.64"
   id="rect14" />
	</g>
	<g
   id="g20">
		<rect
   x="193.79"
   y="215.003"
   class="st4"
   width="24.83"
   height="36.406"
   id="rect18" />
	</g>
	<g
   id="g24">
		<path
   class="st4"
   d="M62.21,113.783v20.57H37.38v-20.57c0-2.761,2.239-5,5-5h14.83C59.971,108.783,62.21,111.021,62.21,113.783z"
   id="path22" />
	</g>
	<g
   id="g28">
		<path
   class="st4"
   d="M218.62,113.783v20.57h-24.83v-20.57c0-2.761,2.239-5,5-5h14.83    C216.381,108.783,218.62,111.021,218.62,113.783z"
   id="path26" />
	</g>
	<g
   id="g32">
		<path
   class="st10"
   d="M53.33,186.992c-1.381,0-2.5-1.119-2.5-2.5v-19.64c0-1.381,1.119-2.5,2.5-2.5s2.5,1.119,2.5,2.5v19.64    C55.83,185.873,54.711,186.992,53.33,186.992z"
   id="path30" />
	</g>
	<g
   id="g36">
		<path
   class="st10"
   d="M53.33,245.569c-1.381,0-2.5-1.119-2.5-2.5v-5c0-1.381,1.119-2.5,2.5-2.5s2.5,1.119,2.5,2.5v5    C55.83,244.449,54.711,245.569,53.33,245.569z M53.33,230.569c-1.381,0-2.5-1.119-2.5-2.5v-13.066c0-1.381,1.119-2.5,2.5-2.5    s2.5,1.119,2.5,2.5v13.066C55.83,229.449,54.711,230.569,53.33,230.569z"
   id="path34" />
	</g>
	<g
   id="g40">
		<path
   class="st10"
   d="M53.33,136.853c-1.381,0-2.5-1.119-2.5-2.5v-13.77c0-1.381,1.119-2.5,2.5-2.5s2.5,1.119,2.5,2.5v13.77    C55.83,135.734,54.711,136.853,53.33,136.853z"
   id="path38" />
	</g>
	<g
   id="g44">
		<path
   class="st10"
   d="M210,186.992c-1.381,0-2.5-1.119-2.5-2.5v-19.64c0-1.381,1.119-2.5,2.5-2.5s2.5,1.119,2.5,2.5v19.64    C212.5,185.873,211.381,186.992,210,186.992z"
   id="path42" />
	</g>
	<g
   id="g48">
		<path
   class="st10"
   d="M210,245.569c-1.381,0-2.5-1.119-2.5-2.5v-5c0-1.381,1.119-2.5,2.5-2.5s2.5,1.119,2.5,2.5v5    C212.5,244.449,211.381,245.569,210,245.569z M210,230.569c-1.381,0-2.5-1.119-2.5-2.5v-13.066c0-1.381,1.119-2.5,2.5-2.5    s2.5,1.119,2.5,2.5v13.066C212.5,229.449,211.381,230.569,210,230.569z"
   id="path46" />
	</g>
	<g
   id="g52">
		<path
   class="st10"
   d="M210,136.853c-1.381,0-2.5-1.119-2.5-2.5v-13.77c0-1.381,1.119-2.5,2.5-2.5s2.5,1.119,2.5,2.5v13.77    C212.5,135.734,211.381,136.853,210,136.853z"
   id="path50" />
	</g>
	<g
   id="g56">
		<rect
   x="12"
   y="134.353"
   class="st6"
   width="232"
   height="30.5"
   id="rect54" />
	</g>
	<g
   id="g60">
		<polygon
   class="st13"
   points="51.5,164.855 24.5,164.855 42.5,134.35 69.5,134.35   "
   id="polygon58" />
	</g>
	<g
   id="g64">
		<polygon
   class="st13"
   points="159.5,164.855 132.5,164.855 150.5,134.35 177.5,134.35   "
   id="polygon62" />
	</g>
	<g
   id="g68">
		<polygon
   class="st13"
   points="213.5,164.855 186.5,164.855 204.5,134.35 231.5,134.35   "
   id="polygon66" />
	</g>
	<g
   id="g72">
		<polygon
   class="st13"
   points="105.5,164.855 78.5,164.855 96.5,134.35 123.5,134.35   "
   id="polygon70" />
	</g>
	<g
   id="g76">
		<rect
   x="12"
   y="184.493"
   class="st6"
   width="232"
   height="30.51"
   id="rect74" />
	</g>
	<g
   id="g80">
		<polygon
   class="st13"
   points="51.5,215 24.5,215 42.5,184.495 69.5,184.495   "
   id="polygon78" />
	</g>
	<g
   id="g84">
		<polygon
   class="st13"
   points="159.5,215 132.5,215 150.5,184.495 177.5,184.495   "
   id="polygon82" />
	</g>
	<g
   id="g88">
		<polygon
   class="st13"
   points="213.5,215 186.5,215 204.5,184.495 231.5,184.495   "
   id="polygon86" />
	</g>
	<g
   id="g92">
		<polygon
   class="st13"
   points="105.5,215 78.5,215 96.5,184.495 123.5,184.495   "
   id="polygon90" />
	</g>
	<g
   id="g96">
		<path
   class="st1"
   d="M177.425,54.019c0-27.297-22.128-49.425-49.425-49.425S78.575,26.722,78.575,54.019    c0,24.328,17.582,44.536,40.73,48.647L128,120.583l8.695-17.917C159.842,98.555,177.425,78.347,177.425,54.019z"
   id="path94" />
	</g>
	<g
   id="g100">
		<path
   class="st3"
   d="M144.423,52.587V30.414h-32.846v22.173H95.154V74.76c9.509,0,56.155,0,65.692,0V52.587H144.423z"
   id="path98" />
	</g>
	<path
   d="M87.9,199.061c-1.15-0.67-2.75-0.25-3.42,0.89c-0.713,1.195-0.297,2.73,0.88,3.42c1.233,0.729,2.758,0.264,3.42-0.88   C89.506,201.251,89.055,199.738,87.9,199.061z"
   id="path102" />
	<path
   d="M34.88,181.992H12c-1.381,0-2.5,1.119-2.5,2.5v30.51c0,1.381,1.119,2.5,2.5,2.5h22.88v33.906c0,1.381,1.119,2.5,2.5,2.5   s2.5-1.119,2.5-2.5v-33.906h19.83v33.906c0,1.381,1.119,2.5,2.5,2.5s2.5-1.119,2.5-2.5v-33.906h126.58v33.906   c0,1.381,1.119,2.5,2.5,2.5s2.5-1.119,2.5-2.5v-33.906h19.83v33.906c0,1.381,1.119,2.5,2.5,2.5s2.5-1.119,2.5-2.5v-33.906H244   c1.381,0,2.5-1.119,2.5-2.5v-30.51c0-1.381-1.119-2.5-2.5-2.5h-22.88v-14.64H244c1.381,0,2.5-1.119,2.5-2.5v-30.5   c0-1.381-1.119-2.5-2.5-2.5h-22.88v-11.182c0-1.38-1.12-2.5-2.5-2.5s-2.5,1.12-2.5,2.5v11.182h-19.83v-18.072   c0-1.38,1.12-2.5,2.5-2.5h9.569c1.381,0,2.5-1.12,2.5-2.5s-1.119-2.5-2.5-2.5h-9.569c-4.141,0-7.5,3.37-7.5,7.5v18.072H64.71   v-18.07c0-4.136-3.364-7.5-7.5-7.5H42.38c-4.136,0-7.5,3.364-7.5,7.5v18.07H12c-1.381,0-2.5,1.119-2.5,2.5v30.5   c0,1.381,1.119,2.5,2.5,2.5c18.981,0,18.995,0,22.88,0V181.992z M65.12,136.853l-15.047,25.5H28.88l15.047-25.5H65.12z    M92.12,136.853l-15.047,25.5H55.88l15.047-25.5H92.12z M119.12,136.853l-15.047,25.5H82.88l15.047-25.5H119.12z M146.12,136.853   l-15.047,25.5H109.88l15.047-25.5H146.12z M173.12,136.853l-15.047,25.5H136.88l15.047-25.5H173.12z M200.12,136.853l-15.047,25.5   H163.88l15.047-25.5H200.12z M227.12,136.853l-15.047,25.5H190.88l15.047-25.5H227.12z M227.123,186.992l-15.053,25.51h-21.194   l15.053-25.51H227.123z M185.071,212.503h-21.194l15.053-25.51h21.194L185.071,212.503z M136.877,212.503l15.053-25.51h21.194   l-15.053,25.51H136.877z M109.877,212.503l15.053-25.51h21.194l-15.053,25.51H109.877z M82.873,212.503l0.827-1.401   c0.711-1.192,0.302-2.714-0.88-3.42c-1.15-0.68-2.75-0.26-3.42,0.88l-2.325,3.941H55.877l15.053-25.51h21.196l-2.565,4.349   c-0.69,1.156-0.332,2.698,0.88,3.42c1.225,0.723,2.747,0.274,3.43-0.88l4.055-6.889h21.198l-15.053,25.51H82.873z M28.877,212.503   l15.053-25.51h21.194l-15.053,25.51H28.877z M64.71,181.992v-14.64c14.666,0,113.159,0,126.58,0v14.64H64.71z M39.88,167.353   c3.218,0,17.14,0,19.83,0v14.64H39.88V167.353z M14.5,186.992h23.623l-15.053,25.51H14.5V186.992z M241.5,212.503h-23.623   l15.053-25.51h8.571V212.503z M216.12,181.992h-19.83v-14.64c5.045,0,14.809,0,19.83,0V181.992z M241.5,162.353h-23.62l15.047-25.5   h8.574V162.353z M39.88,113.782c0-1.378,1.122-2.5,2.5-2.5h14.83c1.378,0,2.5,1.122,2.5,2.5v18.07H39.88V113.782z M14.5,136.853   h23.62l-15.047,25.5H14.5V136.853z"
   id="path104" />
	<path
   d="M219.14,112.891c1.091-0.767,1.403-2.327,0.57-3.48c-0.771-1.08-2.41-1.35-3.49-0.58c-1.14,0.823-1.363,2.391-0.57,3.49   C216.422,113.405,217.959,113.743,219.14,112.891z"
   id="path106" />
	<path
   d="M155.569,10.011c-8.25-5.18-17.779-7.92-27.569-7.92c-28.552,0-51.92,23.104-51.92,51.93   c0,25.266,17.993,46.086,41.53,50.87l8.14,16.78c0.917,1.877,3.585,1.873,4.5,0l8.149-16.78   c23.665-4.814,41.521-25.732,41.521-50.87c0.01-10.66-3.2-20.9-9.26-29.61c-0.761-1.09-2.391-1.39-3.48-0.63   c-1.13,0.79-1.41,2.35-0.63,3.48c5.48,7.88,8.37,17.13,8.38,26.76c0,22.78-16.26,42.2-38.67,46.18c-0.79,0.14-1.47,0.65-1.81,1.37   l-6.45,13.28l-6.44-13.28c-0.35-0.72-1.03-1.23-1.82-1.37c-22.41-3.98-38.67-23.4-38.66-46.18c0-26.037,21.097-46.93,46.92-46.93   c8.84,0,17.46,2.48,24.91,7.15c1.157,0.724,2.722,0.389,3.439-0.79C157.09,12.281,156.729,10.741,155.569,10.011z"
   id="path108" />
	<path
   d="M163.92,19.981c0.914-0.954,0.959-2.534-0.08-3.53c-0.97-0.93-2.61-0.89-3.53,0.08c-0.963,0.984-0.928,2.584,0.08,3.53   C161.319,20.97,162.921,21.021,163.92,19.981z"
   id="path110" />
	<path
   d="M146.923,30.414c0-1.381-1.119-2.5-2.5-2.5h-32.846c-1.381,0-2.5,1.119-2.5,2.5v19.673H95.154c-1.381,0-2.5,1.119-2.5,2.5   V74.76c0,1.381,1.119,2.5,2.5,2.5c6.925,0,58.727,0,65.692,0c1.381,0,2.5-1.119,2.5-2.5V52.587c0-1.381-1.119-2.5-2.5-2.5h-13.923   V30.414z M114.077,32.914h27.846v17.173c-10.076,0-17.769,0-27.846,0V32.914z M97.654,55.087c10.091,0,17.773,0,27.846,0V72.26   H97.654V55.087z M158.346,72.26H130.5V55.087c10.076,0,17.769,0,27.846,0V72.26z"
   id="path112" />
	<path
   d="M106.13,61.511c-1.38,0-2.5,1.12-2.5,2.5v0.67c0,1.38,1.12,2.5,2.5,2.5c1.37,0,2.49-1.12,2.49-2.5v-0.67   C108.62,62.631,107.5,61.511,106.13,61.511z"
   id="path114" />
	<path
   d="M114.33,60.091c-1.37,0-2.5,1.12-2.5,2.5v0.67c0,1.37,1.13,2.5,2.5,2.5c1.38,0,2.5-1.13,2.5-2.5v-0.67   C116.83,61.211,115.71,60.091,114.33,60.091z"
   id="path116" />
	<path
   d="M131.12,39.341v-0.67c0-1.38-1.12-2.5-2.49-2.5c-1.38,0-2.5,1.12-2.5,2.5v0.67c0,1.38,1.12,2.5,2.5,2.5   C130,41.841,131.12,40.721,131.12,39.341z"
   id="path118" />
	<path
   d="M135.88,46.341c1.37,0,2.49-1.12,2.49-2.5v-0.67c0-1.38-1.12-2.5-2.49-2.5c-1.38,0-2.51,1.12-2.51,2.5v0.67   C133.37,45.221,134.5,46.341,135.88,46.341z"
   id="path120" />
	<path
   d="M140.37,63.171c-1.37,0-2.5,1.12-2.5,2.5v0.67c0,1.38,1.13,2.5,2.5,2.5c1.38,0,2.51-1.12,2.51-2.5v-0.67   C142.88,64.291,141.75,63.171,140.37,63.171z"
   id="path122" />
	<path
   d="M148.83,66.511c1.38,0,2.5-1.12,2.5-2.5v-0.67c0-1.38-1.12-2.5-2.5-2.5s-2.5,1.12-2.5,2.5v0.67   C146.33,65.391,147.45,66.511,148.83,66.511z"
   id="path124" />
</g>
<path
   style="fill:#aade87;stroke-width:0.348299"
   d="m 124.77246,107.71721 c -1.76825,-3.64336 -3.44176,-6.81248 -3.7189,-7.04249 -0.27715,-0.23001 -2.09774,-0.810719 -4.04577,-1.290466 -15.47888,-3.812063 -27.759068,-14.90516 -33.025378,-29.832917 -1.899598,-5.384554 -2.58037,-9.491013 -2.58037,-15.564942 0,-6.073501 0.680615,-10.17941 2.580119,-15.564942 C 90.510953,19.910816 108.33317,7.3170869 128,7.3170869 c 7.37762,0 13.88739,1.5715443 20.9382,5.0547561 4.34407,2.146041 6.42458,2.719336 6.92575,1.908429 0.33921,-0.548855 0.65061,-0.430741 2.34527,0.889555 1.50835,1.175146 1.5794,1.308182 1.40264,2.626081 -0.15131,1.1281 -0.0354,1.548793 0.61883,2.245138 0.84234,0.896637 2.66684,1.172442 3.33512,0.504163 0.23813,-0.238134 0.81653,0.21738 1.78011,1.40192 1.39364,1.713215 1.41502,1.77941 0.90498,2.801803 -0.59431,1.191335 -0.70714,0.903387 2.76615,7.059643 3.76615,6.675315 5.62172,14.081853 5.59989,22.351969 -0.0155,5.880191 -0.72396,10.074851 -2.59935,15.390793 -4.065,11.522564 -12.89024,21.383221 -23.75714,26.544435 -3.04065,1.444157 -8.51423,3.287381 -10.94246,3.684874 -0.81361,0.133186 -1.79679,0.502744 -2.18486,0.821234 -0.38806,0.31849 -2.15459,3.54019 -3.92561,7.15935 l -3.22005,6.58027 z m 37.80582,-30.936959 0.7741,-0.542201 V 63.744307 51.250559 l -0.91772,-0.721878 c -0.86183,-0.677916 -1.36028,-0.721878 -8.18503,-0.721878 h -7.26732 v -10.27483 c 0,-9.810431 -0.0315,-10.306315 -0.6966,-10.971429 -0.6782,-0.678206 -1.16099,-0.696598 -18.28571,-0.696598 -17.12472,0 -17.60751,0.01839 -18.28571,0.696598 -0.66512,0.665114 -0.6966,1.160998 -0.6966,10.971429 v 10.27483 h -7.26732 c -6.82475,0 -7.323199,0.04396 -8.185031,0.721878 l -0.91772,0.721878 V 63.744307 76.23805 l 0.774097,0.542201 c 0.68771,0.481691 4.546567,0.542198 34.578284,0.542198 30.03172,0 33.89057,-0.06051 34.57828,-0.542198 z"
   id="path958" /><path
   style="fill:#fff6d5;stroke-width:0.348299"
   d="m 14.628571,149.59456 v -12.71293 h 11.493878 c 6.321633,0 11.493878,0.0966 11.493878,0.2147 0,0.11809 -3.31736,5.83891 -7.371911,12.71293 l -7.37191,12.49822 h -4.121967 -4.121968 z"
   id="path960" /><path
   style="fill:#fff6d5;stroke-width:0.348299"
   d="m 63.63799,149.59456 7.499943,-12.71293 h 10.232394 c 5.627817,0 10.232394,0.10529 10.232394,0.23397 0,0.12869 -3.313816,5.8495 -7.364035,12.71293 l -7.364035,12.47895 H 66.506348 56.138046 Z"
   id="path962" /><path
   style="fill:#fff6d5;stroke-width:0.348299"
   d="m 110.41088,162.08242 c 0,-0.12378 3.31361,-5.84459 7.36357,-12.71292 l 7.36356,-12.48787 h 10.36878 10.36877 l -7.49994,12.71293 -7.49995,12.71292 h -10.23239 c -5.62782,0 -10.2324,-0.10127 -10.2324,-0.22506 z"
   id="path964" /><path
   style="fill:#fff6d5;stroke-width:0.348299"
   d="m 164.39728,162.09796 c 0,-0.12093 3.31736,-5.84408 7.37191,-12.7181 l 7.37191,-12.49823 h 10.36557 10.36556 l -7.44988,12.62585 -7.44989,12.62585 -10.28759,0.0923 c -5.65817,0.0507 -10.28759,-0.007 -10.28759,-0.12763 z"
   id="path966" /><path
   style="fill:#fff6d5;stroke-width:0.348299"
   d="m 218.38367,162.11282 c 0,-0.10706 3.31853,-5.82787 7.3745,-12.71292 l 7.3745,-12.51827 h 4.11938 4.11938 v 12.71293 12.71292 h -11.49388 c -6.32163,0 -11.49388,-0.0876 -11.49388,-0.19466 z"
   id="path968" /><path
   style="fill:#fff6d5;stroke-width:0.348299"
   d="m 14.628571,199.74966 v -12.71293 h 11.493878 c 6.321633,0 11.493878,0.0934 11.493878,0.20747 0,0.1141 -3.317598,5.83492 -7.372439,12.71292 l -7.372439,12.50547 h -4.121438 -4.12144 z"
   id="path970" /><path
   style="fill:#fff6d5;stroke-width:0.348299"
   d="m 63.63799,199.74966 7.499943,-12.71293 h 10.232394 c 5.627817,0 10.23199,0.11756 10.231499,0.26123 -3.48e-4,0.14367 -0.549063,1.1703 -1.219048,2.28139 -1.295141,2.14784 -1.55105,3.82353 -0.724532,4.74424 0.431253,0.4804 0.351088,0.79191 -0.634485,2.46553 -1.030728,1.75029 -1.222844,1.90595 -2.225687,1.80331 -0.806377,-0.0825 -1.331108,0.12119 -1.97776,0.76784 -1.015733,1.01573 -1.110543,1.98173 -0.325016,3.31152 0.533343,0.90288 0.509387,1.0145 -0.609523,2.84014 -1.002239,1.63526 -1.295879,1.88518 -2.105285,1.79177 -1.455763,-0.168 -2.196735,0.43151 -3.571339,2.88953 l -1.269094,2.26936 H 66.539052 56.138046 Z"
   id="path972" /><path
   style="fill:#fff6d5;stroke-width:0.348299"
   d="m 110.41088,212.22861 c 0,-0.12868 3.31382,-5.8495 7.36404,-12.71292 l 7.36403,-12.47896 h 10.36654 10.36654 l -7.50115,12.71293 -7.50115,12.71293 h -10.22942 c -5.62618,0 -10.22943,-0.10529 -10.22943,-0.23398 z"
   id="path974" /><path
   style="fill:#fff6d5;stroke-width:0.348299"
   d="m 164.39728,212.24427 c 0,-0.12577 3.31536,-5.84892 7.36747,-12.71811 l 7.36747,-12.48943 h 10.37001 10.37 l -7.44988,12.62586 -7.44989,12.62585 -10.28759,0.0922 c -5.65817,0.0507 -10.28759,-0.0106 -10.28759,-0.13642 z"
   id="path976" /><path
   style="fill:#fff6d5;stroke-width:0.348299"
   d="m 218.38367,212.25512 c 0,-0.1141 3.3176,-5.83492 7.37244,-12.71292 l 7.37244,-12.50547 h 4.12144 4.12144 v 12.71293 12.71293 h -11.49388 c -6.32163,0 -11.49388,-0.0934 -11.49388,-0.20747 z"
   id="path978" /><path
   style="fill:#e6e6e6;stroke-width:0.348299"
   d="m 196.44082,234.40544 v -16.71837 h 5.39864 5.39864 v 5.52582 c 0,5.06293 0.0605,5.6027 0.72187,6.44354 0.93466,1.18822 3.01731,1.28454 4.01326,0.1856 0.58484,-0.64532 0.67661,-1.40927 0.77402,-6.44354 l 0.11051,-5.71142 h 1.54391 1.54391 v 16.71837 16.71837 h -9.75238 -9.75238 z m 15.53241,10.41156 c 0.56359,-0.62349 0.6635,-1.2838 0.6635,-4.3848 0,-3.4166 -0.0527,-3.69346 -0.82225,-4.31631 -1.05001,-0.84989 -2.52977,-0.84999 -3.57998,-2.4e-4 -0.74581,0.60346 -0.83314,0.98414 -0.93931,4.09451 -0.10536,3.08644 -0.0419,3.52473 0.6348,4.38503 0.96542,1.22733 3.03185,1.34069 4.04324,0.22181 z"
   id="path980" /><path
   style="fill:#e6e6e6;stroke-width:0.348299"
   d="m 196.44082,174.67211 v -7.14014 h 5.39864 5.39864 v 7.14014 7.14013 h -5.39864 -5.39864 z"
   id="path982" /><path
   style="fill:#e6e6e6;stroke-width:0.348299"
   d="m 212.81088,174.67211 v -7.14014 h 1.56735 1.56735 v 7.14014 7.14013 h -1.56735 -1.56735 z"
   id="path986" /><path
   style="fill:#e6e6e6;stroke-width:0.348299"
   d="m 196.44082,122.47418 c 0,-8.76276 0.033,-9.22495 0.72187,-10.10068 l 0.72188,-0.91772 h 5.73749 c 5.62726,0 5.75392,-0.0164 6.59241,-0.85491 0.47021,-0.47021 0.85492,-1.0266 0.85492,-1.23643 0,-0.24436 0.71996,-0.34396 2.00272,-0.27706 l 2.00272,0.10446 0.0222,1.52899 c 0.0249,1.71741 0.98709,2.82475 2.45452,2.82475 0.792,0 0.83216,0.10926 0.83216,2.26394 0,1.72904 -0.11746,2.26395 -0.49717,2.26395 -0.27344,0 -0.82201,0.41297 -1.21904,0.91772 -0.6655,0.84604 -0.72188,1.37654 -0.72188,6.79184 v 5.87411 h -1.5449 -1.54489 l -0.10953,-6.05967 c -0.0972,-5.3783 -0.18413,-6.142 -0.77303,-6.79184 -0.99593,-1.09898 -3.07858,-1.00269 -4.01326,0.18556 -0.66549,0.84604 -0.72187,1.37654 -0.72187,6.79184 v 5.87411 h -5.39864 -5.39864 z"
   id="path988" /><path
   style="fill:#e6e6e6;stroke-width:0.348299"
   d="m 40.054422,122.31377 c 0,-9.31617 0.0023,-9.34557 0.806122,-10.10068 0.780678,-0.7334 1.065704,-0.75731 9.030502,-0.75731 h 8.224381 l 0.721878,0.91772 c 0.688846,0.87573 0.721879,1.33792 0.721879,10.10068 v 9.18296 H 57.817687 56.07619 v -5.87411 c 0,-5.4153 -0.05638,-5.9458 -0.721878,-6.79184 -0.934779,-1.18838 -3.017405,-1.28456 -4.013255,-0.18534 -0.588291,0.64935 -0.676638,1.41927 -0.779352,6.79183 l -0.115846,6.05946 h -5.195718 -5.195719 z"
   id="path990" /><path
   style="fill:#e6e6e6;stroke-width:0.348299"
   d="m 56.07619,174.67211 v -7.14014 h 1.741497 1.741497 v 7.14014 7.14013 H 57.817687 56.07619 Z"
   id="path992" /><path
   style="fill:#e6e6e6;stroke-width:0.348299"
   d="m 40.054422,174.67211 v -7.14014 h 5.22449 5.224489 v 7.14014 7.14013 h -5.224489 -5.22449 z"
   id="path994" /><path
   style="fill:#e6e6e6;stroke-width:0.348299"
   d="m 40.054422,234.40544 v -16.71837 h 5.194522 5.194523 l 0.117042,5.71114 c 0.103046,5.02819 0.196384,5.79871 0.780548,6.44353 0.995839,1.09925 3.078462,1.00309 4.013255,-0.18531 0.661408,-0.84084 0.721878,-1.38061 0.721878,-6.44354 v -5.52582 h 1.741497 1.741497 v 16.71837 16.71837 h -9.752381 -9.752381 z m 15.333573,10.18504 c 0.574662,-0.73056 0.688195,-1.41563 0.688195,-4.1526 0,-3.01564 -0.06835,-3.34606 -0.854916,-4.13262 -1.708654,-1.70866 -4.089401,-0.78691 -4.568877,1.76891 -0.389027,2.0737 0.02518,6.01055 0.712262,6.76977 1.121631,1.23938 2.939127,1.12489 4.023336,-0.25346 z"
   id="path996" /><path
   style="fill:#e9c6af;stroke-width:0.348299"
   d="m 97.872109,63.738776 v -8.359184 h 13.757821 13.75783 v 8.359184 8.359183 H 111.62993 97.872109 Z m 10.100681,2.786394 c 1.08763,-1.087628 0.96577,-3.569004 -0.22112,-4.502612 -1.2174,-0.957603 -2.40707,-0.911752 -3.45186,0.133039 -1.77533,1.775336 -0.6174,5.066172 1.78261,5.066172 0.72937,0 1.46476,-0.270991 1.89037,-0.696599 z m 8.3339,-1.614318 c 1.00217,-1.274043 0.94454,-3.070875 -0.13303,-4.148453 -1.0448,-1.04479 -2.23446,-1.090641 -3.45186,-0.133038 -1.18689,0.933607 -1.30875,3.414984 -0.22112,4.502612 1.03712,1.037117 2.90148,0.928801 3.80601,-0.221121 z"
   id="path998" /><path
   style="fill:#e9c6af;stroke-width:0.348299"
   d="m 130.61224,63.738776 v -8.359184 h 13.75783 13.75782 v 8.359184 8.359183 h -13.75782 -13.75783 z m 11.54237,4.558664 c 0.65202,-0.527973 0.82226,-1.003071 0.82226,-2.294719 0,-1.875797 -0.95713,-2.960544 -2.61224,-2.960544 -1.65512,0 -2.61225,1.084747 -2.61225,2.960544 0,1.875797 0.95713,2.960544 2.61225,2.960544 0.53225,0 1.33774,-0.299621 1.78998,-0.665825 z m 8.64543,-2.534544 c 1.02721,-1.102587 0.95659,-3.202559 -0.14475,-4.303898 -1.04479,-1.04479 -2.23446,-1.090642 -3.45186,-0.133038 -1.18689,0.933607 -1.30874,3.414984 -0.22112,4.502611 0.95779,0.957792 2.89527,0.924462 3.81773,-0.06567 z"
   id="path1000" /><path
   style="fill:#e9c6af;stroke-width:0.348299"
   d="M 114.24218,41.447619 V 33.088435 H 128 141.75782 v 8.359184 8.359184 H 128 114.24218 Z m 23.69275,3.915651 c 1.17045,-1.487988 0.69158,-3.833205 -0.93394,-4.573842 -1.23233,-0.561487 -1.70724,-0.485423 -2.79134,0.447075 -0.76168,0.655171 -0.96933,1.13419 -0.96933,2.236126 0,2.905235 2.95913,4.096952 4.69461,1.890641 z m -8.04419,-3.728619 c 1.09628,-0.566913 1.4181,-1.162648 1.4181,-2.625127 0,-1.471626 -0.32267,-2.058654 -1.45281,-2.643073 -1.99938,-1.033922 -3.77168,0.208046 -3.77168,2.643073 0,1.623554 0.48334,2.424981 1.7415,2.887598 0.82483,0.303285 1.01842,0.278678 2.06489,-0.262471 z"
   id="path1002" /><path
   style="fill:#999999;stroke-width:0.348299"
   d="m 30.366005,160.28528 c 0.635296,-1.11795 3.976308,-6.83449 7.424471,-12.70342 l 6.269388,-10.67079 10.384191,-0.0147 10.38419,-0.0147 -0.740439,1.30613 c -0.407238,0.71836 -3.750395,6.4 -7.429234,12.62585 l -6.688799,11.31972 -10.379426,0.0923 -10.379425,0.0923 z"
   id="path1004" /><path
   style="fill:#999999;stroke-width:0.348299"
   d="m 84.35534,160.28647 c 0.633679,-1.11156 3.973367,-6.82511 7.421531,-12.69678 l 6.269388,-10.67577 10.382071,-0.0161 10.38208,-0.0162 -1.15214,2.02102 c -0.63368,1.11156 -3.97337,6.82511 -7.42154,12.69678 l -6.26938,10.67576 -10.382077,0.0161 -10.382075,0.0161 z"
   id="path1006" /><path
   style="fill:#999999;stroke-width:0.348299"
   d="m 137.33448,162.04626 c 1.69485,-3.03956 14.37531,-24.42059 14.66938,-24.73462 0.31856,-0.34021 2.73414,-0.41966 10.58892,-0.3483 l 10.1762,0.0924 -7.40762,12.61327 -7.40762,12.61326 -10.38246,0.0126 c -5.71035,0.007 -10.31691,-0.10497 -10.2368,-0.24864 z"
   id="path1008" /><path
   style="fill:#999999;stroke-width:0.348299"
   d="m 191.32445,162.04626 c 2.72011,-4.76145 14.38096,-24.4215 14.67069,-24.73462 0.31488,-0.3403 2.72837,-0.41968 10.58973,-0.3483 l 10.1819,0.0924 -7.41332,12.61463 -7.41331,12.61464 -10.38246,0.0112 c -5.71036,0.006 -10.31531,-0.10633 -10.23323,-0.25 z"
   id="path1010" /><path
   style="fill:#999999;stroke-width:0.348299"
   d="m 30.354411,210.43092 c 0.641673,-1.12317 3.987902,-6.84128 7.436065,-12.7069 l 6.269388,-10.66478 10.370849,-0.0112 10.370849,-0.0113 -0.516152,0.95783 c -0.283884,0.5268 -3.62192,6.20843 -7.417859,12.62585 l -6.901706,11.66803 -10.389056,0.0923 -10.389056,0.0923 z"
   id="path1012" /><path
   style="fill:#999999;stroke-width:0.348299"
   d="m 83.757042,211.43498 c 0.674714,-1.30475 0.669049,-1.94073 -0.02779,-3.12038 -0.537475,-0.90988 -0.516031,-1.01677 0.552324,-2.75306 0.988561,-1.60662 1.243049,-1.80644 2.300682,-1.80644 0.724774,0 1.46121,-0.27204 1.885771,-0.6966 0.822867,-0.82286 0.92126,-2.65744 0.186093,-3.46979 -0.453409,-0.50101 -0.381501,-0.77676 0.642939,-2.46552 0.896986,-1.47866 1.324437,-1.88223 1.922499,-1.81512 1.554131,0.17439 2.611072,-0.84729 4.736905,-4.57887 l 2.089796,-3.66834 10.390649,-0.0121 10.39066,-0.0121 -0.98658,1.70072 c -0.54261,0.93539 -3.88616,6.64944 -7.43011,12.69787 l -6.44353,10.99715 -10.37085,0.0151 -10.370849,0.0151 z"
   id="path1014" /><path
   style="fill:#999999;stroke-width:0.348299"
   d="m 137.33448,212.20136 c 1.69485,-3.03956 14.37531,-24.42058 14.66938,-24.73462 0.31856,-0.3402 2.73323,-0.41966 10.58423,-0.3483 l 10.17151,0.0924 -7.40293,12.61155 -7.40293,12.61155 -10.38246,0.0143 c -5.71035,0.008 -10.31691,-0.10325 -10.2368,-0.24692 z"
   id="path1016" /><path
   style="fill:#999999;stroke-width:0.348299"
   d="m 191.32345,212.20136 c 2.3284,-4.10331 14.3791,-24.42183 14.66984,-24.73462 0.31627,-0.34026 2.73,-0.41967 10.58653,-0.3483 l 10.17685,0.0924 -7.40826,12.61472 -7.40827,12.61472 -10.38246,0.0111 c -5.71036,0.006 -10.31576,-0.10642 -10.23423,-0.25009 z"
   id="path1018" /></svg>
